# xmcd
#
# Track frame offsets: 
#        150
#        30995
#        63215
#        81261
#        105793
#        133693
#        158133
#        181278
#        210393
#        228580
#
# Disc length: 3454 seconds
#
# Revision: 0
# Processed by: cddbd v1.5.2PL0 Copyright (c) Steve Scherf et al.
# Submitted via: ExactAudioCopy v0.95b3
#
DISCID=720d7c0a
DTITLE=Free  - Talking Of Heartbreaker (1972-Bootleg-Soundboard)
DYEAR=1900
DGENRE=
TTITLE0=I'm On The Run
TTITLE1=Heartbreaker
TTITLE2=Soldier Boy
TTITLE3=Come Together In The Morning
TTITLE4=Everyday I Have The Blues
TTITLE5=Child
TTITLE6=Wishing Well
TTITLE7=Seven Angels
TTITLE8=Fire And Water
TTITLE9=All Right Now
EXTD=
EXTT0=
EXTT1=
EXTT2=
EXTT3=
EXTT4=
EXTT5=
EXTT6=
EXTT7=
EXTT8=
EXTT9=
PLAYORDER=
